<svg aria-hidden="true" style="position: absolute; width: 0; height: 0; overflow: hidden;" version="1.1" xmlns="http://www.w3.org/2000/svg" xmlns:xlink="http://www.w3.org/1999/xlink">
    <defs>
        <symbol id="compass" viewBox="0 0 32 32">
            <path d="M7.896 23.896l5.053-10.739 10.739-5.053-5.053 10.739-10.739 5.053zM15.792 14.579c-0.377 0-0.738 0.15-1.005 0.416s-0.416 0.628-0.416 1.005c0 0.377 0.15 0.738 0.416 1.005s0.628 0.416 1.005 0.416c0.377 0 0.738-0.15 1.005-0.416s0.416-0.628 0.416-1.005c0-0.377-0.15-0.738-0.416-1.005s-0.628-0.416-1.005-0.416zM15.792 0.208c2.074 0 4.127 0.408 6.043 1.202s3.657 1.957 5.123 3.423c1.466 1.466 2.63 3.207 3.423 5.123s1.202 3.97 1.202 6.043c0 4.188-1.664 8.205-4.625 11.167s-6.978 4.625-11.167 4.625c-2.074 0-4.127-0.408-6.043-1.202s-3.657-1.957-5.123-3.423c-2.962-2.962-4.625-6.978-4.625-11.167s1.664-8.205 4.625-11.167c2.962-2.962 6.978-4.625 11.167-4.625zM15.792 3.366c-3.351 0-6.564 1.331-8.933 3.7s-3.7 5.583-3.7 8.933 1.331 6.564 3.7 8.933c2.369 2.369 5.583 3.7 8.933 3.7s6.564-1.331 8.933-3.7c2.369-2.369 3.7-5.583 3.7-8.933s-1.331-6.564-3.7-8.933c-2.369-2.369-5.583-3.7-8.933-3.7z"></path>
        </symbol>
        <symbol id="magnifying-glass" viewBox="0 0 32 32">
            <path d="M14.476 0.208c-2.283 0-4.533 0.54-6.567 1.576s-3.795 2.538-5.138 4.384-2.23 3.983-2.59 6.238c-0.359 2.254-0.18 4.562 0.522 6.734s1.909 4.147 3.52 5.764c1.611 1.617 3.582 2.83 5.752 3.54s4.476 0.897 6.732 0.545 4.396-1.232 6.246-2.568l5.373 5.373 3.257-3.257-5.373-5.373c1.562-2.161 2.496-4.712 2.7-7.371s-0.331-5.322-1.544-7.696c-1.214-2.374-3.060-4.367-5.334-5.759s-4.889-2.128-7.556-2.128zM6.567 6.775c1.034-1.059 2.268-1.901 3.631-2.48s2.826-0.88 4.306-0.889c1.48-0.009 2.947 0.276 4.316 0.839s2.613 1.391 3.659 2.437c1.046 1.046 1.875 2.29 2.437 3.659s0.848 2.836 0.839 4.316c-0.009 1.48-0.311 2.943-0.889 4.306s-1.421 2.596-2.48 3.631c-2.106 2.057-4.938 3.202-7.882 3.185s-5.763-1.194-7.845-3.276c-2.082-2.082-3.259-4.901-3.276-7.845s1.127-5.776 3.185-7.882z"></path>
        </symbol>
        <symbol id="loop" viewBox="0 0 41 32">
            <path d="M4.534 16h-3.542c-0.89 0-1.326 1.066-0.693 1.678l5.521 5.527c0.396 0.395 1.009 0.395 1.405 0l5.521-5.508c0.613-0.632 0.178-1.698-0.712-1.698h-3.542c0-6.534 5.323-11.844 11.872-11.844 1.563 0 3.087 0.296 4.452 0.869 0.712 0.296 1.524 0.079 2.058-0.454 1.009-1.007 0.653-2.704-0.673-3.237-1.801-0.73-3.779-1.125-5.837-1.125-8.746 0-15.829 7.067-15.829 15.792zM32.236 16c0 6.534-5.323 11.844-11.872 11.844-1.563 0-3.087-0.296-4.452-0.869-0.712-0.296-1.524-0.079-2.058 0.454-1.009 1.007-0.653 2.704 0.673 3.237 1.801 0.73 3.779 1.125 5.837 1.125 8.746 0 15.829-7.067 15.829-15.792h3.542c0.89 0 1.326-1.066 0.693-1.678l-5.52-5.508c-0.396-0.395-1.009-0.395-1.405 0l-5.52 5.508c-0.137 0.139-0.229 0.316-0.266 0.507s-0.015 0.389 0.061 0.569c0.076 0.179 0.204 0.332 0.367 0.439s0.354 0.164 0.55 0.163h3.542z"></path>
        </symbol>
        <symbol id="graph" viewBox="0 0 32 32">
            <path d="M0 1.787c0-0.419 0.166-0.821 0.463-1.117s0.698-0.463 1.117-0.463c0.419 0 0.82 0.166 1.117 0.463s0.462 0.698 0.462 1.117v16.369l3.501-2.915 0.527-0.42c1.241-0.932 2.542-1.526 3.967-1.437 1.612 0.104 2.943 1.058 4.137 2.252l0.011 0.009 0.395 0.377c0.878 0.788 1.435 0.963 1.805 0.97 0.442 0.006 1.105-0.224 2.231-1.21l9.231-8.078c0.316-0.273 0.727-0.41 1.143-0.381s0.804 0.222 1.079 0.536c0.275 0.314 0.414 0.725 0.387 1.141s-0.218 0.806-0.531 1.082l-9.231 8.076c-1.292 1.131-2.71 2.012-4.349 1.99-1.453-0.017-2.721-0.734-3.896-1.796l-0.499-0.474-0.009-0.011c-1.034-1.034-1.666-1.304-2.103-1.331-0.37-0.024-0.932 0.106-1.855 0.797l-0.418 0.332-5.512 4.592c0.009 0.731 0.028 1.341 0.071 1.867 0.079 0.957 0.224 1.507 0.436 1.922l0.182 0.325c0.456 0.742 1.108 1.347 1.889 1.745l0.163 0.077c0.396 0.171 0.922 0.291 1.757 0.358 0.974 0.081 2.226 0.081 4.020 0.081l18.478 0.008c0.39 0.039 0.751 0.221 1.013 0.512s0.408 0.668 0.408 1.059-0.145 0.769-0.408 1.059c-0.263 0.29-0.624 0.473-1.013 0.512l-0.161 0.008h-18.317c-1.742 0-3.144 0.002-4.278-0.092-1.006-0.082-1.907-0.243-2.743-0.602l-0.354-0.167c-1.391-0.708-2.54-1.813-3.303-3.174l-0.147-0.276c-0.477-0.936-0.676-1.947-0.769-3.097-0.060-0.901-0.088-1.804-0.084-2.707-0.010-0.097-0.010-0.195-0.002-0.292-0.004-0.404-0.006-0.831-0.006-1.279v-18.319z"></path>
        </symbol>
        <symbol id="building" viewBox="0 0 25 32">
            <path d="M0.208 0.208v31.584h10.508v-6.141h3.503v6.141h10.508v-31.584h-24.519zM3.711 3.717h3.503v3.509h-3.503v-3.509zM10.716 3.717h3.503v3.509h-3.503v-3.509zM17.722 3.717h3.503v3.509h-3.503v-3.509zM3.711 10.736h3.503v3.509h-3.503v-3.509zM10.716 10.736h3.503v3.509h-3.503v-3.509zM17.722 10.736h3.503v3.509h-3.503v-3.509zM3.711 17.755h3.503v3.509h-3.503v-3.509zM10.716 17.755h3.503v3.509h-3.503v-3.509zM17.722 17.755h3.503v3.509h-3.503v-3.509zM3.711 24.773h3.503v3.509h-3.503v-3.509zM17.722 24.773h3.503v3.509h-3.503v-3.509z"></path>
        </symbol>
        <symbol id="calendar" viewBox="0 0 29 32">
            <path d="M3.181 32c-0.875 0-1.624-0.313-2.246-0.939s-0.934-1.38-0.935-2.261v-22.4c0-0.88 0.312-1.633 0.935-2.259s1.372-0.94 2.246-0.941h1.591v-1.6c0-0.453 0.153-0.833 0.458-1.139s0.683-0.46 1.133-0.461c0.45-0.001 0.828 0.153 1.134 0.461s0.459 0.688 0.457 1.139v1.6h12.725v-1.6c0-0.453 0.153-0.833 0.458-1.139s0.683-0.46 1.133-0.461c0.45-0.001 0.828 0.153 1.134 0.461s0.459 0.688 0.457 1.139v1.6h1.591c0.875 0 1.624 0.314 2.248 0.941s0.935 1.38 0.934 2.259v22.4c0 0.88-0.311 1.634-0.934 2.261s-1.372 0.94-2.248 0.939h-22.269zM3.181 28.8h22.269v-16h-22.269v16zM3.181 9.6h22.269v-3.2h-22.269v3.2zM14.316 19.2c-0.451 0-0.828-0.154-1.133-0.461s-0.457-0.687-0.458-1.139c-0.001-0.452 0.152-0.832 0.458-1.139s0.684-0.461 1.133-0.461 0.827 0.154 1.134 0.461c0.307 0.307 0.46 0.687 0.457 1.139s-0.156 0.833-0.458 1.141-0.68 0.461-1.133 0.459zM7.953 19.2c-0.451 0-0.828-0.154-1.133-0.461s-0.457-0.687-0.458-1.139c-0.001-0.452 0.152-0.832 0.458-1.139s0.684-0.461 1.133-0.461 0.827 0.154 1.134 0.461c0.308 0.307 0.46 0.687 0.457 1.139s-0.156 0.833-0.458 1.141c-0.302 0.308-0.68 0.461-1.133 0.459zM20.678 19.2c-0.451 0-0.828-0.154-1.133-0.461s-0.457-0.687-0.458-1.139c-0.001-0.452 0.152-0.832 0.458-1.139s0.684-0.461 1.133-0.461 0.827 0.154 1.134 0.461c0.308 0.307 0.46 0.687 0.456 1.139s-0.156 0.833-0.458 1.141-0.68 0.461-1.133 0.459zM14.316 25.6c-0.451 0-0.828-0.154-1.133-0.461s-0.457-0.687-0.458-1.139c-0.001-0.452 0.152-0.832 0.458-1.139s0.684-0.461 1.133-0.461 0.827 0.154 1.134 0.461c0.307 0.307 0.46 0.687 0.457 1.139s-0.156 0.833-0.458 1.141-0.68 0.461-1.133 0.459zM7.953 25.6c-0.451 0-0.828-0.154-1.133-0.461s-0.457-0.687-0.458-1.139c-0.001-0.452 0.152-0.832 0.458-1.139s0.684-0.461 1.133-0.461 0.827 0.154 1.134 0.461c0.308 0.307 0.46 0.687 0.457 1.139s-0.156 0.833-0.458 1.141c-0.302 0.308-0.68 0.461-1.133 0.459zM20.678 25.6c-0.451 0-0.828-0.154-1.133-0.461s-0.457-0.687-0.458-1.139c-0.001-0.452 0.152-0.832 0.458-1.139s0.684-0.461 1.133-0.461 0.827 0.154 1.134 0.461c0.308 0.307 0.46 0.687 0.456 1.139s-0.156 0.833-0.458 1.141-0.68 0.461-1.133 0.459z"></path>
        </symbol>
        <symbol id="chain" viewBox="0 0 32 32">
            <path d="M8.471 28.235c0.523 0 0.967-0.183 1.333-0.549l4.078-4.078c0.366-0.366 0.549-0.81 0.549-1.333 0-0.549-0.209-1.020-0.627-1.412-0.039 0.039-0.16 0.163-0.363 0.373s-0.343 0.35-0.422 0.422c-0.078 0.072-0.203 0.17-0.373 0.294s-0.337 0.209-0.5 0.255c-0.163 0.046-0.343 0.069-0.539 0.069-0.523 0-0.967-0.183-1.333-0.549s-0.549-0.81-0.549-1.333c0-0.196 0.023-0.376 0.069-0.539s0.131-0.33 0.255-0.5c0.124-0.17 0.222-0.294 0.294-0.373s0.212-0.219 0.422-0.422c0.209-0.203 0.333-0.324 0.373-0.363-0.405-0.431-0.882-0.647-1.431-0.647-0.523 0-0.967 0.183-1.333 0.549l-4.059 4.039c-0.353 0.353-0.529 0.797-0.529 1.333 0 0.523 0.17 0.967 0.51 1.333l2.863 2.882c0.366 0.366 0.804 0.549 1.314 0.549zM22.294 14.451c0.523 0 0.967-0.183 1.333-0.549l4.059-4.039c0.366-0.366 0.549-0.81 0.549-1.333 0-0.51-0.176-0.954-0.529-1.333l-2.863-2.882c-0.366-0.366-0.804-0.549-1.314-0.549-0.523 0-0.967 0.183-1.333 0.549l-4.078 4.078c-0.353 0.353-0.529 0.797-0.529 1.333 0 0.549 0.203 1.020 0.608 1.412 0.039-0.039 0.16-0.163 0.363-0.373s0.343-0.35 0.422-0.422c0.078-0.072 0.203-0.17 0.373-0.294s0.337-0.209 0.5-0.255c0.163-0.046 0.343-0.069 0.539-0.069 0.523 0 0.967 0.183 1.333 0.549s0.549 0.81 0.549 1.333c0 0.196-0.023 0.376-0.069 0.539s-0.131 0.33-0.255 0.5c-0.124 0.17-0.222 0.294-0.294 0.373s-0.212 0.219-0.422 0.422c-0.209 0.203-0.333 0.324-0.373 0.363 0.405 0.431 0.882 0.647 1.431 0.647zM8.471 32c-1.569 0-2.895-0.556-3.98-1.667l-2.863-2.882c-1.085-1.085-1.627-2.412-1.627-3.98 0-1.582 0.556-2.915 1.667-4l4.059-4.039c1.085-1.085 2.412-1.627 3.98-1.627 1.608 0 2.974 0.575 4.098 1.726l1.726-1.726c-1.15-1.124-1.726-2.484-1.726-4.078 0-1.569 0.549-2.902 1.647-4l4.078-4.078c1.098-1.098 2.431-1.647 4-1.647s2.895 0.556 3.98 1.667l2.863 2.882c1.085 1.085 1.627 2.412 1.627 3.98 0 1.582-0.556 2.915-1.667 4l-4.059 4.039c-1.085 1.085-2.412 1.627-3.98 1.627-1.608 0-2.974-0.575-4.098-1.726l-1.726 1.726c1.15 1.124 1.726 2.484 1.726 4.078 0 1.569-0.549 2.902-1.647 4l-4.078 4.078c-1.098 1.098-2.431 1.647-4 1.647z"></path>
        </symbol>
        <symbol id="star" viewBox="0 0 32 32">
            <path d="M11.128 24.559l4.872-3.732 4.872 3.732-1.827-6.152 4.567-3.227h-5.684l-1.928-6.253-1.928 6.253h-5.684l4.567 3.227-1.827 6.152zM16 25.87l-7.511 5.699c-0.372 0.303-0.778 0.446-1.218 0.43s-0.829-0.143-1.167-0.379c-0.338-0.237-0.6-0.556-0.786-0.958s-0.194-0.839-0.026-1.311l2.893-9.329-7.358-5.194c-0.406-0.269-0.66-0.622-0.761-1.059s-0.085-0.841 0.051-1.21c0.135-0.37 0.372-0.698 0.71-0.984s0.744-0.429 1.218-0.428h9.084l2.943-9.682c0.169-0.471 0.432-0.832 0.788-1.085s0.736-0.379 1.141-0.377c0.405 0.001 0.786 0.128 1.143 0.379s0.619 0.613 0.786 1.083l2.943 9.682h9.084c0.474 0 0.88 0.143 1.218 0.43s0.575 0.614 0.71 0.982 0.152 0.772 0.051 1.21c-0.101 0.438-0.355 0.791-0.761 1.059l-7.358 5.194 2.893 9.329c0.169 0.471 0.161 0.908-0.024 1.311s-0.448 0.723-0.788 0.958c-0.34 0.235-0.729 0.362-1.167 0.379s-0.844-0.126-1.218-0.43l-7.511-5.699z"></path>
        </symbol>
        <symbol id="gear" viewBox="0 0 32 32">
            <path d="M14.199 3.2c-0.247 0-0.447 0.19-0.447 0.424 0 3.857-4.398 6.269-7.916 4.339-0.103-0.056-0.224-0.071-0.339-0.042s-0.212 0.099-0.272 0.196l-1.799 2.963c-0.057 0.097-0.072 0.212-0.042 0.32s0.104 0.2 0.206 0.256c3.518 1.93 3.518 6.751 0 8.682-0.101 0.057-0.175 0.149-0.205 0.258s-0.015 0.223 0.044 0.32l1.797 2.961c0.060 0.097 0.157 0.168 0.272 0.197s0.236 0.014 0.339-0.042c3.518-1.928 7.916 0.482 7.916 4.339 0 0.113 0.047 0.222 0.132 0.302s0.199 0.125 0.318 0.125h3.596c0.119-0.001 0.232-0.046 0.316-0.126s0.131-0.188 0.131-0.301c0-3.854 4.398-6.265 7.916-4.334 0.103 0.055 0.224 0.070 0.338 0.041s0.211-0.1 0.271-0.196l1.802-2.961c0.058-0.098 0.073-0.213 0.043-0.321s-0.105-0.201-0.207-0.257c-3.518-1.93-3.518-6.751 0-8.679 0.102-0.057 0.177-0.149 0.208-0.258s0.015-0.224-0.044-0.322l-1.802-2.961c-0.060-0.097-0.157-0.167-0.271-0.196s-0.235-0.015-0.338 0.041c-3.518 1.93-7.916-0.482-7.916-4.339 0-0.113-0.047-0.222-0.132-0.302s-0.199-0.125-0.318-0.125h-3.596zM10.382 3.626c0-2.005 1.707-3.626 3.816-3.626h3.596c2.112 0 3.819 1.621 3.819 3.626 0.001 0.318 0.089 0.63 0.257 0.905s0.408 0.503 0.698 0.662c0.29 0.159 0.619 0.242 0.953 0.243s0.663-0.083 0.953-0.242c0.877-0.479 1.918-0.609 2.895-0.36s1.81 0.855 2.317 1.687l1.802 2.961c1.054 1.734 0.427 3.948-1.397 4.949-0.29 0.159-0.531 0.388-0.699 0.664s-0.256 0.588-0.256 0.906c0 0.318 0.088 0.631 0.256 0.906s0.408 0.504 0.699 0.664c0.876 0.481 1.515 1.272 1.776 2.2s0.126 1.916-0.379 2.749l-1.802 2.961c-0.506 0.831-1.34 1.438-2.317 1.687s-2.018 0.119-2.895-0.36c-0.29-0.158-0.619-0.242-0.953-0.242s-0.663 0.084-0.953 0.243c-0.29 0.159-0.531 0.387-0.698 0.662s-0.256 0.587-0.257 0.905c0 2.003-1.707 3.626-3.817 3.626h-3.596c-1.012-0.001-1.983-0.383-2.699-1.063s-1.118-1.602-1.118-2.563c-0.001-0.318-0.089-0.63-0.257-0.905s-0.408-0.503-0.698-0.662c-0.29-0.159-0.619-0.242-0.953-0.243s-0.663 0.083-0.953 0.242c-0.877 0.479-1.918 0.609-2.895 0.36s-1.81-0.855-2.317-1.687l-1.802-2.961c-0.505-0.832-0.641-1.821-0.379-2.749s0.901-1.719 1.777-2.2c0.29-0.159 0.53-0.388 0.697-0.663s0.255-0.588 0.255-0.905-0.088-0.63-0.255-0.905c-0.167-0.275-0.408-0.504-0.697-0.663-0.876-0.481-1.515-1.272-1.777-2.2s-0.126-1.916 0.379-2.749l1.799-2.963c0.506-0.832 1.34-1.438 2.317-1.687s2.018-0.119 2.895 0.36c0.29 0.158 0.619 0.242 0.953 0.242s0.663-0.084 0.953-0.243c0.29-0.159 0.531-0.387 0.698-0.662s0.256-0.587 0.257-0.905zM19.367 15.998c0-0.849-0.355-1.662-0.987-2.262s-1.489-0.937-2.383-0.937-1.751 0.337-2.383 0.937c-0.632 0.6-0.987 1.414-0.987 2.262s0.355 1.662 0.987 2.262c0.632 0.6 1.489 0.937 2.383 0.937s1.751-0.337 2.383-0.937c0.632-0.6 0.987-1.414 0.987-2.262zM22.737 15.998c0 1.697-0.71 3.325-1.974 4.525s-2.978 1.874-4.765 1.874-3.501-0.674-4.765-1.874c-1.264-1.2-1.974-2.828-1.974-4.525s0.71-3.325 1.974-4.525c1.264-1.2 2.978-1.874 4.765-1.874s3.501 0.674 4.765 1.874c1.264 1.2 1.974 2.828 1.974 4.525z"></path>
        </symbol>
        <symbol id="globe" viewBox="0 0 32 32">
            <path d="M16 0c-8.822 0-16 7.178-16 16s7.178 16 16 16c8.822 0 16-7.178 16-16s-7.178-16-16-16zM28.69 14.4h-4.422c-0.199-3.502-1.179-6.915-2.867-9.989 1.959 0.915 3.655 2.311 4.929 4.057s2.087 3.787 2.36 5.932zM16.848 3.243c1.656 2.182 3.883 6.048 4.203 11.157h-9.803c0.222-4.154 1.59-8.045 3.922-11.158 0.275-0.016 0.55-0.042 0.83-0.042 0.286 0 0.566 0.026 0.848 0.043zM10.701 4.363c-1.574 3.026-2.483 6.456-2.653 10.037h-4.738c0.276-2.164 1.1-4.221 2.393-5.977s3.013-3.154 4.998-4.059zM3.31 17.6h4.758c0.218 3.806 1.064 7.165 2.49 9.968-1.948-0.918-3.634-2.313-4.901-4.056s-2.074-3.776-2.347-5.912zM15.12 28.757c-2.242-2.717-3.565-6.523-3.854-11.157h9.781c-0.333 4.437-1.787 8.314-4.165 11.155-0.291 0.019-0.582 0.045-0.882 0.045-0.298 0-0.587-0.026-0.88-0.043zM21.538 27.522c1.528-2.87 2.461-6.242 2.706-9.922h4.445c-0.269 2.119-1.065 4.137-2.314 5.87s-2.912 3.126-4.837 4.052z"></path>
        </symbol>
        <symbol id="chat" viewBox="0 0 35 32">
            <path d="M17.684 0c9.726 0 17.684 6.364 17.684 14.222s-7.958 14.222-17.684 14.222c-2.193 0-4.297-0.32-6.243-0.889-5.164 4.444-11.442 4.444-11.442 4.444 4.12-4.142 4.775-6.933 4.863-8-3.006-2.542-4.863-5.991-4.863-9.778 0-7.858 7.958-14.222 17.684-14.222z"></path>
        </symbol>
        <symbol id="phone" viewBox="0 0 34 32">
            <path d="M32.842 29.36v1.040c0 0.884-0.716 1.6-1.6 1.6h-3.2c-15.022 0-27.2-12.178-27.2-27.2v-3.2c0-0.884 0.716-1.6 1.6-1.6h6.4c0.884 0 1.6 0.716 1.6 1.6v6.4c0 0.896-0.496 2.096-1.12 2.72l-3.424 3.424c2.432 5.76 7.040 10.368 12.8 12.8l3.392-3.392c0.64-0.64 1.84-1.136 2.72-1.136h6.432c0.877 0.009 1.584 0.722 1.584 1.6v5.36l0.016-0.016z"></path>
        </symbol>
        <symbol id="email" viewBox="0 0 39 32">
            <path d="M21.878 15.822c0.323 0.237 0.66 0.356 1.012 0.356s0.69-0.119 1.012-0.356l11.313-7.956v-4.311l-12.325 8.622-12.325-8.622v4.311l11.313 7.956zM3.522 32c-0.968 0-1.797-0.348-2.486-1.044s-1.034-1.533-1.035-2.512v-20.444c0-0.504 0.169-0.926 0.507-1.266s0.756-0.511 1.254-0.512c0.498-0.001 0.916 0.169 1.255 0.512s0.508 0.764 0.505 1.266v20.444h27.292c0.499 0 0.917 0.171 1.255 0.512s0.506 0.763 0.505 1.266c-0.001 0.503-0.17 0.925-0.507 1.268s-0.755 0.513-1.254 0.51h-27.292zM10.565 24.889c-0.968 0-1.797-0.348-2.486-1.044s-1.034-1.533-1.035-2.512v-17.778c0-0.978 0.345-1.815 1.035-2.51s1.519-1.044 2.486-1.045h24.651c0.968 0 1.798 0.348 2.488 1.045s1.035 1.534 1.034 2.51v17.778c0 0.978-0.345 1.815-1.034 2.512s-1.518 1.045-2.488 1.044h-24.651z"></path>
        </symbol>
        <symbol id="comment" viewBox="0 0 34 32">
            <path d="M6.776 26.709l-3.896 3.839c-0.536 0.529-1.151 0.647-1.843 0.356s-1.038-0.814-1.037-1.566v-25.999c0-0.918 0.332-1.704 0.996-2.357s1.461-0.98 2.392-0.982h27.106c0.932 0 1.73 0.327 2.394 0.982s0.996 1.44 0.994 2.357v20.031c0 0.918-0.331 1.704-0.994 2.359s-1.461 0.981-2.394 0.98h-23.718zM15.247 15.024v3.339c0 0.473 0.163 0.87 0.488 1.19s0.727 0.48 1.206 0.479c0.479-0.001 0.881-0.161 1.208-0.481s0.488-0.715 0.486-1.188v-3.339h3.388c0.48 0 0.883-0.16 1.208-0.481s0.487-0.717 0.486-1.189c-0.001-0.472-0.164-0.868-0.488-1.189s-0.726-0.481-1.206-0.481h-3.388v-3.339c0-0.473-0.163-0.869-0.488-1.189s-0.727-0.48-1.206-0.481c-0.479-0.001-0.881 0.159-1.206 0.481s-0.488 0.718-0.488 1.189v3.339h-3.388c-0.48 0-0.882 0.16-1.206 0.481s-0.487 0.717-0.488 1.189c-0.001 0.472 0.162 0.869 0.488 1.19s0.728 0.481 1.206 0.479h3.388z"></path>
        </symbol>
        <symbol id="send" viewBox="0 0 32 32">
            <path d="M0 0l32 16-32 16v-32zM0 12.8v6.4l16-3.2-16-3.2z"></path>
        </symbol>
    </defs>
</svg>